<svg width="70" height="70" viewBox="0 0 73 73" fill="none" xmlns="http://www.w3.org/2000/svg">
    <g filter="url(#filter0_d_11_473)">
        <path d="M69 36.5C69 54.4493 54.4493 69 36.5 69C18.5507 69 4 54.4493 4 36.5C4 18.5507 18.5507 4 36.5 4C54.4493 4 69 18.5507 69 36.5Z" fill="#202020"/>
        <g filter="url(#filter1_d_11_473)">
            <path d="M36.6626 22.2V50.6374V22.2ZM48.8501 34.3875L36.6626 22.2L48.8501 34.3875ZM24.4751 34.3875L36.6626 22.2L24.4751 34.3875Z" fill="white"/>
            <path d="M36.6626 22.2V50.6375M36.6626 22.2L48.8501 34.3875M36.6626 22.2L24.4751 34.3875" stroke="white" stroke-width="6.25" stroke-linecap="round" stroke-linejoin="round"/>
        </g>
    </g>
    <defs>
        <filter id="filter0_d_11_473" x="0" y="0" width="73" height="73" filterUnits="userSpaceOnUse" color-interpolation-filters="sRGB">
            <feFlood flood-opacity="0" result="BackgroundImageFix"/>
            <feColorMatrix in="SourceAlpha" type="matrix" values="0 0 0 0 0 0 0 0 0 0 0 0 0 0 0 0 0 0 127 0" result="hardAlpha"/>
            <feOffset/>
            <feGaussianBlur stdDeviation="2"/>
            <feComposite in2="hardAlpha" operator="out"/>
            <feColorMatrix type="matrix" values="0 0 0 0 0.968627 0 0 0 0 0.968627 0 0 0 0 0.960784 0 0 0 1 0"/>
            <feBlend mode="normal" in2="BackgroundImageFix" result="effect1_dropShadow_11_473"/>
            <feBlend mode="normal" in="SourceGraphic" in2="effect1_dropShadow_11_473" result="shape"/>
        </filter>
        <filter id="filter1_d_11_473" x="17.3501" y="15.075" width="38.625" height="42.6875" filterUnits="userSpaceOnUse" color-interpolation-filters="sRGB">
            <feFlood flood-opacity="0" result="BackgroundImageFix"/>
            <feColorMatrix in="SourceAlpha" type="matrix" values="0 0 0 0 0 0 0 0 0 0 0 0 0 0 0 0 0 0 127 0" result="hardAlpha"/>
            <feOffset/>
            <feGaussianBlur stdDeviation="2"/>
            <feComposite in2="hardAlpha" operator="out"/>
            <feColorMatrix type="matrix" values="0 0 0 0 1 0 0 0 0 1 0 0 0 0 1 0 0 0 1 0"/>
            <feBlend mode="normal" in2="BackgroundImageFix" result="effect1_dropShadow_11_473"/>
            <feBlend mode="normal" in="SourceGraphic" in2="effect1_dropShadow_11_473" result="shape"/>
        </filter>
    </defs>
</svg>
